<?xml version="1.0" encoding="utf-8"?>
<!-- Generator: Adobe Illustrator 16.0.0, SVG Export Plug-In . SVG Version: 6.00 Build 0)  -->
<!DOCTYPE svg PUBLIC "-//W3C//DTD SVG 1.1//EN" "http://www.w3.org/Graphics/SVG/1.1/DTD/svg11.dtd">
<svg version="1.1" id="Layer_1" xmlns="http://www.w3.org/2000/svg" xmlns:xlink="http://www.w3.org/1999/xlink" x="0px" y="0px"
	 width="130px" height="60px" viewBox="0 0 130 60" enable-background="new 0 0 130 60" xml:space="preserve">
<g id="BACKGROUND">
</g>
<g id="OBJECTS">
</g>
<g>
	<g>
		<path fill="#FFFFFF" d="M32.897,11.795h1.76v7.895h-1.76V11.795z"/>
		<path fill="#FFFFFF" d="M42.337,11.795h1.764v7.895h-1.764l-3.76-4.947v4.947h-1.762v-7.895h1.647l3.875,5.083V11.795z"/>
		<path fill="#FFFFFF" d="M48.104,13.371c-0.167,0.14-0.254,0.324-0.254,0.554c0,0.229,0.103,0.411,0.312,0.546
			c0.207,0.136,0.684,0.296,1.432,0.48c0.75,0.185,1.331,0.462,1.746,0.831c0.416,0.369,0.623,0.907,0.623,1.614
			c0,0.708-0.267,1.284-0.796,1.723c-0.533,0.441-1.229,0.662-2.095,0.662c-1.251,0-2.376-0.465-3.378-1.39l1.051-1.288
			c0.849,0.747,1.637,1.118,2.36,1.118c0.322,0,0.578-0.069,0.764-0.209c0.181-0.139,0.275-0.327,0.275-0.564
			s-0.099-0.427-0.293-0.564c-0.197-0.14-0.585-0.281-1.163-0.425c-0.92-0.218-1.593-0.503-2.019-0.852
			c-0.425-0.35-0.636-0.9-0.636-1.649s0.269-1.327,0.807-1.734c0.538-0.405,1.209-0.608,2.016-0.608
			c0.525,0,1.055,0.089,1.582,0.269c0.527,0.182,0.986,0.438,1.378,0.769l-0.892,1.288c-0.686-0.52-1.394-0.78-2.122-0.78
			C48.505,13.163,48.273,13.231,48.104,13.371z"/>
		<path fill="#FFFFFF" d="M56.954,13.32v6.37h-1.762v-6.37h-2.238v-1.525h6.232v1.525H56.954z"/>
		<path fill="#FFFFFF" d="M60.691,11.795h1.762v7.895h-1.762V11.795z"/>
		<path fill="#FFFFFF" d="M67.952,13.32v6.37h-1.763v-6.37h-2.235v-1.525h6.235v1.525H67.952z"/>
		<path fill="#FFFFFF" d="M73.78,17.651c0.296,0.366,0.688,0.549,1.187,0.549c0.496,0,0.889-0.183,1.181-0.549
			c0.288-0.365,0.435-0.863,0.435-1.495v-4.361h1.762v4.417c0,1.144-0.316,2.023-0.948,2.637c-0.635,0.614-1.442,0.92-2.429,0.92
			s-1.798-0.309-2.434-0.925c-0.639-0.619-0.955-1.495-0.955-2.632v-4.417h1.763v4.361C73.341,16.788,73.487,17.286,73.78,17.651z"
			/>
		<path fill="#FFFFFF" d="M83.731,13.32v6.37h-1.763v-6.37h-2.236v-1.525h6.233v1.525H83.731z"/>
		<path fill="#FFFFFF" d="M93.896,18.601c-0.798,0.78-1.783,1.169-2.95,1.169c-1.166,0-2.148-0.389-2.944-1.169
			c-0.799-0.779-1.201-1.749-1.201-2.907c0-1.16,0.402-2.13,1.201-2.91c0.796-0.78,1.778-1.167,2.944-1.167
			c1.167,0,2.152,0.388,2.95,1.167c0.797,0.78,1.197,1.75,1.197,2.91C95.094,16.852,94.693,17.822,93.896,18.601z M93.298,15.697
			c0-0.704-0.229-1.304-0.678-1.802c-0.453-0.495-1.008-0.744-1.666-0.744c-0.659,0-1.214,0.249-1.666,0.744
			c-0.453,0.499-0.678,1.099-0.678,1.802c0,0.705,0.225,1.303,0.678,1.796c0.452,0.494,1.007,0.741,1.666,0.741
			c0.658,0,1.213-0.247,1.666-0.741C93.068,17,93.298,16.402,93.298,15.697z"/>
	</g>
	<g>
		<path fill="#FFFFFF" d="M35.951,25.572l-2.875-2.993h9.976v10.183c0,1.859-0.479,3.251-1.441,4.174
			c-0.961,0.925-2.19,1.386-3.696,1.386c-1.875,0-3.512-0.724-4.912-2.166l1.81-2.502c0.937,1.012,1.92,1.519,2.944,1.519
			c0.492,0,0.914-0.188,1.263-0.568c0.35-0.381,0.523-0.95,0.523-1.708v-7.324H35.951z"/>
		<path fill="#FFFFFF" d="M45.014,37.795c-0.379-0.38-0.569-0.843-0.569-1.395c0-0.551,0.19-1.017,0.569-1.396
			c0.382-0.379,0.847-0.568,1.396-0.568c0.551,0,1.019,0.189,1.398,0.568c0.376,0.379,0.567,0.845,0.567,1.396
			c0,0.552-0.19,1.015-0.567,1.395c-0.379,0.382-0.847,0.57-1.398,0.57C45.86,38.365,45.396,38.177,45.014,37.795z"/>
		<path fill="#FFFFFF" d="M62.263,22.579v3.06h-8.261v3.371h6.673v3.058h-6.673v6.118l-3.483-3.489V22.579H62.263z"/>
		<path fill="#FFFFFF" d="M61.138,37.795c-0.378-0.38-0.566-0.843-0.566-1.395c0-0.551,0.188-1.017,0.566-1.396
			c0.38-0.379,0.845-0.568,1.397-0.568c0.55,0,1.016,0.189,1.395,0.568c0.381,0.379,0.57,0.845,0.57,1.396
			c0,0.552-0.189,1.015-0.57,1.395c-0.379,0.382-0.845,0.57-1.395,0.57C61.983,38.365,61.518,38.177,61.138,37.795z"/>
		<path fill="#FFFFFF" d="M77.356,22.579h3.485v15.607h-3.485l-7.435-9.781v9.781l-3.482-3.489V22.579h3.26l7.657,10.047V22.579z"/>
		<path fill="#FFFFFF" d="M95.8,38.187l-1.45-3.372h-6.543l-1.451,3.372H82.65l6.742-15.607h3.37l6.74,15.607H95.8z M91.09,27.223
			l-1.966,4.535h3.908L91.09,27.223z"/>
		<path fill="#FFFFFF" d="M105.061,25.693c-0.336,0.277-0.502,0.641-0.502,1.095c0,0.455,0.201,0.814,0.612,1.083
			c0.408,0.267,1.354,0.584,2.836,0.947c1.48,0.365,2.632,0.915,3.448,1.643c0.82,0.729,1.228,1.794,1.228,3.193
			c0,1.399-0.521,2.535-1.573,3.406c-1.049,0.87-2.43,1.306-4.142,1.306c-2.471,0-4.498-1.128-6.478-2.961l2.085-2.33
			c1.683,1.472,3.033,2.209,4.461,2.209c0.639,0,1.141-0.137,1.508-0.412c0.363-0.276,0.545-0.648,0.545-1.116
			c0-0.469-0.193-0.841-0.579-1.115c-0.388-0.278-1.153-0.557-2.299-0.838c-1.819-0.432-3.148-0.995-3.986-1.687
			c-0.841-0.692-1.263-1.778-1.263-3.259c0-1.482,0.531-2.624,1.595-3.429c1.066-0.804,2.395-1.205,3.986-1.205
			c1.042,0,2.085,0.179,3.129,0.536c1.039,0.357,1.949,0.864,2.723,1.518l-2.176,2.134c-1.354-1.026-2.342-1.13-3.787-1.13
			C105.852,25.28,105.395,25.418,105.061,25.693z"/>
		<path fill="#FFFFFF" d="M124.522,22.579h3.486v15.607h-3.486v-6.14h-6.207v6.14h-3.483V22.579h3.483V29.1h6.207V22.579z"/>
	</g>
	<g>
		<g>
			<path fill="#FFFFFF" d="M23.08,11.49h-3.881h-2.17h-2.1H2.607v0.059l1.719,1.719l1.147,1.146l0.709,0.711l0.873,0.874v-0.059
				h4.447v4.446h-0.057l0.057,0.058v-0.057h4.445v4.446H15.89l0.057,0.057v-0.056h4.449v4.446h4.448v4.447h-0.056l0.542,0.545
				l1.155,1.152l1.145,1.147l1.717,1.716c0-0.019,0.003-0.037,0.003-0.056V24.919v-0.058V21.64v-1.854V11.49H23.08z M24.686,19.278
				l0.49,2.847l-2.555-1.344l-2.559,1.344l0.49-2.847l-2.07-2.016l2.858-0.416l1.281-2.59l1.275,2.59l2.86,0.416L24.686,19.278z"/>
			<polygon fill="#FFFFFF" points="20.396,29.336 20.396,29.279 20.339,29.279 			"/>
		</g>
		<path fill="#FFFFFF" d="M9.293,38.058v0.129v0.044c0,0.711,0.112,1.415,0.338,2.094c0.206,0.62,0.501,1.208,0.88,1.743
			c0.337,0.482,0.739,0.914,1.184,1.29c0.539,0.449,1.142,0.812,1.794,1.076c0.634,0.255,1.308,0.41,1.998,0.462
			c0.192,0.013,0.348,0.02,0.493,0.02c0.334,0,0.662-0.024,0.988-0.072l-7.674-7.676V38.058z"/>
		<path fill="#FFFFFF" d="M20.834,42.815l0.024-0.024l0.148-0.157l-0.055-0.057L9.317,30.943l-0.024,0.022v0.259v1.763v1.237
			l9.878,9.878C19.781,43.768,20.342,43.338,20.834,42.815z"/>
		<path fill="#FFFFFF" d="M23.577,45.473l-1.214-1.215c-1.604,1.696-3.87,2.758-6.383,2.758c-0.22,0-0.433-0.009-0.646-0.025
			c-0.923-0.067-1.807-0.276-2.632-0.609c-0.859-0.348-1.655-0.827-2.355-1.412c-0.589-0.495-1.111-1.064-1.554-1.688
			c-0.493-0.699-0.884-1.472-1.155-2.296c-0.288-0.868-0.446-1.792-0.446-2.754v-0.044v-0.129l-1.616,1.618l-0.989,0.99l-1.414,1.41
			c1.656,5.511,6.759,9.524,12.808,9.524c3.781,0,7.195-1.574,9.63-4.099l-1.223-1.219L23.577,45.473z"/>
		<path fill="#FFFFFF" d="M26.473,38.653l-1.707-1.708v0.039l-1.72-1.719L8.909,21.131l-1.718-1.721v-0.037l-1.717-1.72
			l-1.147-1.145l-1.719-1.718v23.44c0,0.38,0.02,0.751,0.052,1.119l1.667-1.667l1.147-1.146l1.717-1.721v-8.922l1.718,1.719
			l0.384,0.382l0.024-0.022l13.118,13.119l1.286,1.285l1.26,1.261l0.367,0.365l0.463,0.463l1.248,1.247
			c0.913-1.35,1.581-2.875,1.954-4.517l-1.482-1.482L26.473,38.653z"/>
	</g>
</g>
</svg>
